Coordinates
version=1
nRows=6
nColumns=36
inDegrees=yes

Units are S.I. units (second, meters, Newtons, ...)
If the header above contains a line with 'inDegrees', this indicates whether rotational values are in degrees (yes) or radians (no).

endheader
time	pelvis_tilt	pelvis_list	pelvis_rotation	pelvis_tx	pelvis_ty	pelvis_tz	hip_flexion_r	hip_adduction_r	hip_rotation_r	knee_angle_r	knee_angle_r_beta	ankle_angle_r	subtalar_angle_r	mtp_angle_r	hip_flexion_l	hip_adduction_l	hip_rotation_l	knee_angle_l	knee_angle_l_beta	ankle_angle_l	subtalar_angle_l	mtp_angle_l	lumbar_extension	lumbar_bending	lumbar_rotation	arm_flex_r	arm_add_r	arm_rot_r	elbow_flex_r	pro_sup_r	arm_flex_l	arm_add_l	arm_rot_l	elbow_flex_l	pro_sup_l
      0.66000000	     -2.59661702	      0.50841943	     -5.73970499	      0.65348631	      0.91612106	     -0.16596285	     -7.90747375	      1.81204549	      1.59976549	     30.21087340	      0.52727921	     11.75728715	      1.04266999	     -7.04301162	     28.35535826	      2.52101313	     -4.73860977	     15.70322749	      0.27407302	    -10.08863684	    -11.69854302	     -7.04301162	     -6.98649581	     -5.15296889	      5.33899628	     12.92961014	    -18.23054160	      8.04495138	     83.48311114	    105.80865823	    -21.13550115	     -3.97636936	    -24.09769843	     29.40499766	     96.49745567
      0.67000000	     -2.42295051	      1.22304214	     -5.54535577	      0.66769031	      0.91681860	     -0.16707777	     -6.74675961	      0.70495303	      1.34797680	     33.81239454	      0.59013761	      9.20171301	      0.96345931	     -7.04977602	     28.10184004	      3.58703836	     -3.90285869	     17.28232028	      0.30163339	     -9.38103320	    -13.12780949	     -7.04977602	     -7.09498438	     -6.00129909	      4.83217144	     11.80254648	    -17.77282489	      8.01448821	     82.79570335	    105.80184797	    -20.57621059	     -4.11833141	    -23.80432813	     29.39803476	     96.49616021
      0.68000000	     -2.49538821	      1.78832202	     -5.36026631	      0.68133644	      0.91741684	     -0.16819519	     -5.01732468	     -0.15606288	      1.32644048	     37.77571918	      0.65931068	      6.25701475	      0.33407827	     -7.06552495	     28.02147326	      4.52297543	     -2.92062512	     18.67104519	      0.32587121	     -9.11099840	    -15.10753681	     -7.06552495	     -6.97735438	     -6.62046771	      4.42892091	     10.64098900	    -17.28692492	      7.88814563	     81.86989725	    105.88695940	    -19.86844256	     -4.28308229	    -23.08516019	     29.33143379	     96.52279955
      0.69000000	     -2.34834836	      2.48094571	     -5.17352492	      0.69490293	      0.91845625	     -0.16938456	     -3.35042947	     -1.22510742	      1.25722161	     41.86404817	      0.73066548	      3.20958699	      0.32004193	     -7.07073231	     27.51428079	      5.58067919	     -2.39309123	     19.71069850	      0.34401659	     -8.00818822	    -16.05558032	     -7.07073231	     -7.12373782	     -7.39389349	      3.87501330	      9.56855264	    -16.81049272	      7.93763690	     80.81148076	    105.88459308	    -19.10794322	     -4.38384528	    -22.75671868	     29.47915639	     96.57324550
      0.70000000	     -2.56989535	      2.97520343	     -5.07921382	      0.70785308	      0.91921177	     -0.17031893	     -1.04441629	     -1.90766176	      1.52957774	     46.09301222	      0.80447483	     -0.37013666	     -0.91777433	     -7.08593199	     27.31709347	      6.33009901	     -2.01091744	     20.54716048	      0.35861560	     -7.26965921	    -16.98686182	     -7.08593199	     -6.88316004	     -7.91218008	      3.45564418	      8.57033229	    -16.30439096	      8.04020078	     79.32792724	    106.03679653	    -18.30718367	     -4.54466235	    -22.00302653	     29.59976567	     96.73880817
      0.71000000	     -2.59478561	      3.56095444	     -5.04979915	      0.72064492	      0.92037692	     -0.17124570	      1.16541132	     -2.76005419	      1.79268187	     50.26047625	      0.87721079	     -3.42847504	     -1.22849400	     -7.09158893	     26.65608269	      7.15187011	     -1.93887057	     20.86451961	      0.36415456	     -6.20053564	    -17.41430559	     -7.09158893	     -6.88010370	     -8.53275054	      3.05082207	      7.58160024	    -15.82663342	      8.15820514	     77.82879651	    106.04577000	    -17.41765504	     -4.62863499	    -21.64585288	     29.92233239	     96.86275786
